<?xml version="1.0" encoding="UTF-8"?> <svg xmlns="http://www.w3.org/2000/svg" id="Capa_1" data-name="Capa 1" viewBox="0 0 120 110"><defs><style>.cls-1,.cls-2{fill:none;stroke:#fff;stroke-linecap:round;}.cls-1{stroke-miterlimit:10;stroke-width:2px;}.cls-2{stroke-linejoin:round;stroke-width:3px;}.cls-3{fill:#fff;}</style></defs><line class="cls-1" x1="11.55" y1="107.26" x2="112.77" y2="107.26"></line><path class="cls-2" d="M54.43,11.56s-.76-7.66-4.43-8-11.65,13-11.65,13L36,16.69S29.5,2.91,24.83,2.24,23.77,22,23.77,22s-3.31,1.72-2.57,7.7C20.73,31.35,9.81,37.19,8,40.43s9.62,9.36,9.62,9.36,14.53-3.59,16.27-4.31c2.27,1.14,4,1.76,4,3.16s-1.3,10-.12,11"></path><path class="cls-3" d="M88.3,53A21.41,21.41,0,0,0,98.76,34.88c0-12-10.46-21.76-23.33-21.76S52.09,22.88,52.09,34.88A21.41,21.41,0,0,0,62.55,53C48.3,57.91,38.08,70.67,38.08,85.64h6.23c0-16,14-29,31.12-29s31.11,13,31.11,29h6.23C112.77,70.67,102.55,57.91,88.3,53ZM75.43,50.83c-9.44,0-17.12-7.16-17.12-15.95s7.68-16,17.12-16,17.11,7.16,17.11,16S84.86,50.83,75.43,50.83Z"></path></svg> 