<?xml version="1.0" encoding="UTF-8"?> <svg xmlns="http://www.w3.org/2000/svg" id="Capa_1" data-name="Capa 1" viewBox="0 0 120 110"><defs><style>.cls-1{fill:none;stroke:#fff;stroke-linecap:round;stroke-miterlimit:10;stroke-width:2px;}.cls-2{fill:#fff;}</style></defs><line class="cls-1" x1="11.99" y1="107.26" x2="114.28" y2="107.26"></line><path class="cls-2" d="M63,84.49c23.47-12.83,36.95-30,40-50.88a59.9,59.9,0,0,0-2.57-28.29,4,4,0,0,0-2.27-2.18A4,4,0,0,0,95,3.31c-15,7.51-26,17.82-32.55,30.63L60,38.74,57.3,34.08C50,21.58,38.5,11.84,23.18,5.14a4,4,0,0,0-5.4,2.57c-.13.5-13.13,51.46,41.4,76.83l.32.13.13.06.2,0,.25.07.38.11a3.91,3.91,0,0,0,.71,0h.26a3.91,3.91,0,0,0,.8-.18Zm1.19-32,0-.2c3.2-15.59,12.13-28.2,26.55-37.5l3.82-2.47.71,4.5c1.93,12.38.94,36.05-27.51,55.45l-4.2,2.87-.42-5.07A64.15,64.15,0,0,1,64.2,52.51Zm-8,.58a73.94,73.94,0,0,0-.9,15.07L55.56,74l-4.85-3.27C26.05,54.08,23.45,31.24,24.09,19.1l.26-4.84,4.19,2.44c14.35,8.38,23.65,20.2,27.63,35.15l.16.61Z"></path></svg> 